<svg width="17" height="13" viewBox="0 0 17 13" fill="none" xmlns="http://www.w3.org/2000/svg">
<path d="M5.86009 13C5.72297 12.9995 5.58741 12.9709 5.46183 12.9158C5.33624 12.8608 5.22333 12.7805 5.13009 12.68L0.270086 7.50997C0.0884125 7.31636 -0.00890928 7.05852 -0.000470147 6.79315C0.00796899 6.52779 0.121478 6.27664 0.315086 6.09497C0.508694 5.9133 0.766542 5.81598 1.03191 5.82442C1.29727 5.83285 1.54841 5.94636 1.73009 6.13997L5.85009 10.53L14.2601 1.32997C14.3454 1.22369 14.4516 1.13599 14.5721 1.07223C14.6926 1.00848 14.8248 0.970035 14.9607 0.959251C15.0966 0.948466 15.2332 0.965574 15.3622 1.00952C15.4912 1.05347 15.6099 1.12333 15.711 1.21482C15.812 1.3063 15.8933 1.41748 15.9498 1.54151C16.0063 1.66555 16.0369 1.79983 16.0396 1.93611C16.0423 2.07239 16.0172 2.20778 15.9657 2.33398C15.9141 2.46018 15.8374 2.57452 15.7401 2.66997L6.60009 12.67C6.50773 12.7723 6.3952 12.8545 6.26958 12.9113C6.14395 12.9681 6.00794 12.9983 5.87009 13H5.86009Z" fill="white"/>
</svg>
